<svg width="186" height="127" viewBox="0 0 186 127" fill="none" xmlns="http://www.w3.org/2000/svg">
<path d="M85.7339 63.2118C87.6314 61.3081 91.4564 58.0717 91.5763 60.3562C91.7261 63.2118 87.981 70.5763 91.5763 67.2698C95.1716 63.9633 99.5159 58.1018 99.8155 60.3562C100.115 62.6106 100.565 63.2118 104.759 59.1538" stroke="#9747FF" stroke-width="2" stroke-linecap="round"/>
<path d="M12.939 95.7696C13.6387 96.7213 15.878 98.5743 19.2369 98.3727" stroke="black" stroke-width="2" stroke-linecap="round"/>
<path d="M55.0931 99.9682C51.8303 101.75 42.3903 103.441 30.3247 96.3119C29.8908 96.0554 29.332 96.1469 28.9937 96.5206C26.3334 99.4592 19.814 104.743 11.4274 105.426C8.82428 105.639 6.97693 104.335 9.99988 103.243C11.6794 102.637 12.939 102.235 13.5267 101.648" stroke="black" stroke-width="2" stroke-linecap="round"/>
<path d="M8.65641 103.999C6.97696 104.783 4.79368 105.309 4.45779 103.831C4.03792 101.984 7.06093 102.32 8.23653 101.396" stroke="black" stroke-width="2" stroke-linecap="round"/>
<path d="M4.20609 103.915C1.35104 104.755 0.0260412 102.226 2.52666 100.976C4.87789 99.8002 6.89322 100.22 8.40473 98.4567" stroke="black" stroke-width="2" stroke-linecap="round"/>
<path d="M1.68679 101.563C1.043 101.004 0.276046 99.5649 2.35857 98.2885C4.96172 96.6931 17.1378 91.3188 15.6262 87.0362C15.1817 85.7767 12.7712 85.8609 10.7558 83.2576C9.25892 81.324 10.7558 79.0589 12.6032 80.3185C13.0791 80.6825 16.0125 82.5858 17.5576 81.914C19.4605 81.0867 25.6837 80.3409 30.2036 85.8606C30.3355 86.0217 30.511 86.1444 30.7113 86.2013C34.5429 87.2886 42.5494 88.7742 46.2763 86.6165" stroke="black" stroke-width="2" stroke-linecap="round"/>
<path d="M17.7256 89.7235C18.7612 90.7032 21.6723 91.0671 23.5197 89.3037" stroke="black" stroke-width="2" stroke-linecap="round"/>
<path d="M173.061 94.7709C172.361 95.7226 170.122 97.5756 166.763 97.374" stroke="black" stroke-width="2" stroke-linecap="round"/>
<path d="M130.907 98.9695C134.169 100.752 143.609 102.443 155.675 95.3131C156.109 95.0567 156.668 95.1482 157.006 95.5219C159.666 98.4604 166.186 103.744 174.572 104.428C177.175 104.64 179.023 103.336 176 102.244C174.32 101.638 173.061 101.237 172.473 100.649" stroke="black" stroke-width="2" stroke-linecap="round"/>
<path d="M177.344 103C179.023 103.784 181.206 104.31 181.542 102.832C181.962 100.985 178.939 101.321 177.763 100.397" stroke="black" stroke-width="2" stroke-linecap="round"/>
<path d="M181.794 102.916C184.649 103.756 185.974 101.228 183.473 99.9773C181.122 98.8017 179.107 99.2215 177.595 97.4581" stroke="black" stroke-width="2" stroke-linecap="round"/>
<path d="M184.313 100.565C184.957 100.005 185.724 98.5664 183.641 97.29C181.038 95.6945 168.862 90.3203 170.374 86.0377C170.818 84.7782 173.229 84.8623 175.244 82.2591C176.741 80.3254 175.244 78.0604 173.397 79.32C172.921 79.6839 169.987 81.5873 168.442 80.9155C166.539 80.0882 160.316 79.3424 155.796 84.8621C155.664 85.0231 155.489 85.1459 155.289 85.2027C151.457 86.2901 143.451 87.7756 139.724 85.618" stroke="black" stroke-width="2" stroke-linecap="round"/>
<path d="M168.274 88.7248C167.239 89.7045 164.328 90.0684 162.48 88.305" stroke="black" stroke-width="2" stroke-linecap="round"/>
<path d="M84.0154 28.7242C84.6493 35.953 87.8937 48.7021 95.7715 49.1962C104.07 49.7167 107.528 32.888 107.528 28.5508" stroke="black" stroke-width="2" stroke-linecap="round"/>
<path d="M85.5269 28.3828L83.1757 28.0469" stroke="black" stroke-width="2" stroke-linecap="round"/>
<path d="M108.419 28.0469C110.966 28.6873 112.968 31.4703 106.856 36.78" stroke="black" stroke-width="2" stroke-linecap="round"/>
<path d="M82.9131 28.0469C80.6933 28.338 78.3566 31.7148 85.1913 36.78" stroke="black" stroke-width="2" stroke-linecap="round"/>
<ellipse cx="89.8936" cy="29.4744" rx="1.51151" ry="1.42753" fill="black"/>
<circle cx="101.398" cy="29.4744" r="1.42753" fill="black"/>
<circle cx="90.0615" cy="29.3904" r="4.2063" stroke="black" stroke-width="2"/>
<path d="M101.229 25.1841C103.491 25.1841 105.352 27.0518 105.353 29.3901C105.353 31.7286 103.491 33.5971 101.229 33.5971C98.9682 33.597 97.1074 31.7285 97.1074 29.3901C97.1076 27.0518 98.9683 25.1842 101.229 25.1841Z" stroke="black" stroke-width="2"/>
<path d="M94.5961 28.8867H96.6114" stroke="black" stroke-width="2" stroke-linecap="round"/>
<path d="M93.7809 32.0775C93.3442 34.4987 93.2956 38.5185 97.6191 36.3049" stroke="black" stroke-width="2" stroke-linecap="round"/>
<path d="M92.7488 41.4824C93.6725 40.9755 96.0741 40.2658 98.291 41.4824" stroke="black" stroke-width="2" stroke-linecap="round"/>
<path d="M105.513 28.0469H108.368" stroke="black" stroke-width="2" stroke-linecap="round"/>
<path d="M82.6095 14.0277C73.7974 18.1771 77.9051 25.4386 81.0605 28.5507C81.6113 28.1358 83.3553 28.032 84.1585 28.032C82.6439 16.9669 88.3465 14.0276 90.8708 13.336C97.9274 12.1258 106.017 14.0277 107.394 19.5603C109.038 26.1695 109.09 28.3778 110.369 28.5507C115.227 24.6779 114.511 17.255 113.545 14.0277C114.805 10.4228 111.991 7.16963 110.369 5.21018C108.746 3.25073 104.296 -0.322486 96.3784 0.023394C80.7162 1.57943 81.7489 11.2614 82.6095 14.0277Z" fill="black"/>
<path d="M87.0385 22.5047C87.7522 22.378 89.8935 22.2005 92.7486 22.5047" stroke="black" stroke-width="2" stroke-linecap="round"/>
<path d="M98.7948 22.8405C99.4666 22.587 101.482 22.2321 104.169 22.8405" stroke="black" stroke-width="2" stroke-linecap="round"/>
<path d="M88.0107 48.4091C71.3841 47.2334 67.2862 44.8655 55.2614 73.6849" stroke="black" stroke-width="2" stroke-linecap="round"/>
<path d="M104.119 47.8026C118.395 50.3217 125.28 41.5885 134.685 70.3913" stroke="black" stroke-width="2" stroke-linecap="round"/>
<path d="M65.254 91.9068C63.7062 99.3019 59.1947 100.66 56.2176 100.342C55.5324 100.269 55.287 99.4737 55.6478 98.8867C60.3207 91.2846 52.2741 85.7059 47.2741 86.4505C46.7163 86.5335 46.0948 86.25 46.1184 85.6866C46.2299 83.0227 50.8334 82.1789 51.3146 77.9674C51.5833 75.6162 51.9024 74.4133 53.2459 74.3566C59.208 74.1046 67.5213 81.0744 65.254 91.9068Z" fill="black" stroke="black" stroke-width="2" stroke-linecap="round"/>
<path d="M135.861 71.4827C137.195 77.6818 141.316 80.8745 140.342 84.898C140.222 85.3976 139.682 85.6388 139.181 85.5216C130.461 83.4786 127.726 92.1404 129.947 96.8949C130.343 97.7427 129.824 98.9708 128.938 98.6689C122.852 96.5944 118.606 86.5111 120.074 82.3991C124.693 69.4674 135.373 69.2155 135.861 71.4827Z" fill="black" stroke="black" stroke-width="2" stroke-linecap="round"/>
<path d="M122.174 92.8958C122.118 104.008 122.325 115.585 123.937 124.721" stroke="black" stroke-width="2" stroke-linecap="round"/>
<path d="M65.5899 90.8992C65.7019 101.872 65.3716 114.462 63.4906 125.412" stroke="black" stroke-width="2" stroke-linecap="round"/>
<path d="M102.594 51.9003C103.341 49.8029 102.658 48.3914 101.995 48.1225C97.9989 51.6722 91.9382 50.3544 89.693 48.203C88.8933 48.913 89.3586 51.0131 89.693 51.6584C94.0205 56.3053 100.18 53.7023 102.594 51.9003Z" fill="#9747FF"/>
</svg>
